<?xml version="1.0" encoding="UTF-8"?>
<svg width="24px" height="24px" viewBox="0 0 24 24" version="1.1" xmlns="http://www.w3.org/2000/svg" xmlns:xlink="http://www.w3.org/1999/xlink">
    <title>Icons/查看</title>
    <g id="票务平台-管理端" stroke="none" stroke-width="1" fill="none" fill-rule="evenodd">
        <g id="视觉规范" transform="translate(-958.000000, -669.000000)" fill="#1BA9BA">
            <g id="Icons/查看" transform="translate(958.000000, 669.000000)">
                <g id="Icons/Watch" transform="translate(3.000000, 6.000000)">
                    <path d="M8.84432941,0.0146213227 C12.2629191,-0.192719123 15.6390239,1.80598648 18.8778124,5.95502829 C18.9619023,6.06249187 19.005069,6.19666566 18.9995254,6.33334486 C19.0050634,6.47001179 18.9618967,6.60417185 18.8778124,6.7116239 C15.7914587,10.6654279 12.580167,12.6666667 9.32620399,12.6666667 C9.16546957,12.6666667 9.00477185,12.6617779 8.84432941,12.6520309 C7.61120473,12.5772945 6.37942226,12.2102738 5.18320855,11.5612325 C4.24009598,11.049505 3.31720987,10.362148 2.44018284,9.51818793 C0.956063564,8.08995939 0.118072686,6.71261838 0.083119116,6.65467564 C0.0245416558,6.55788728 -0.00421027014,6.44579052 0.000498196484,6.33255678 C-0.00391618934,6.21984007 0.0248251678,6.10831976 0.083119116,6.01197655 C0.118054044,5.95405257 0.956063564,4.57667404 2.44018284,3.14848303 C3.31720987,2.30450422 4.24009598,1.61710966 5.18320855,1.10540094 C6.37942226,0.456359673 7.61120473,0.0893952301 8.84432941,0.0146213227 Z M17.7131781,6.3333261 C14.8071289,2.72787277 11.8503365,0.989196473 8.91885974,1.16426311 C6.49699675,1.30904491 4.5015114,2.76412451 3.25399517,3.95928738 C2.24958801,4.92155345 1.5520266,5.87704577 1.24216087,6.33334486 C1.55206388,6.78968148 2.24964394,7.74519257 3.25399517,8.70740235 C4.5015114,9.90254645 6.49697811,11.3576073 8.9188411,11.5023703 C11.8500755,11.6776434 14.8071102,9.93883572 17.7131781,6.3333261 Z M9.50005839,3.60356247 C11.0463298,3.60356247 12.3042855,4.86976524 12.3042855,6.42613206 C12.3042855,7.98251763 11.0463111,9.24870164 9.50005839,9.24870164 C7.95380564,9.24870164 6.6958313,7.98251763 6.6958313,6.42613206 C6.6958313,4.86976524 7.95380564,3.60356247 9.50005839,3.60356247 Z M9.48848176,4.75560603 C8.57335069,4.75560603 7.82883032,5.50499633 7.82883032,6.42611329 C7.82883032,7.34724902 8.57335069,8.09662055 9.48850041,8.09662055 C10.4035942,8.09662055 11.1481332,7.34724902 11.1481332,6.42611329 C11.1481332,5.50499633 10.4036128,4.75560603 9.48848176,4.75560603 Z" id="形状结合"></path>
                </g>
            </g>
        </g>
    </g>
</svg>