<?xml version="1.0" encoding="UTF-8"?>
<svg width="60px" height="60px" viewBox="0 0 60 60" version="1.1" xmlns="http://www.w3.org/2000/svg" xmlns:xlink="http://www.w3.org/1999/xlink">
    <title>Icons/今日订票数</title>
    <g id="票务平台-管理端" stroke="none" stroke-width="1" fill="none" fill-rule="evenodd">
        <g id="视觉规范" transform="translate(-182.000000, -537.000000)">
            <g id="Icons/今日订票数" transform="translate(182.000000, 537.000000)">
                <rect id="矩形" fill="#679CF6" x="0" y="0" width="60" height="60" rx="20"></rect>
                <g id="Icons/未就业" transform="translate(15.833333, 18.000000)" fill="#FFFFFF">
                    <path d="M5.64705882,-3.55271368e-15 C6.01307191,-3.55271368e-15 6.3267974,0.261437898 6.43137255,0.62745098 C6.43137255,0.732026134 7.05882353,3.45098039 9.83006538,3.45098039 C12.6013072,3.45098039 13.1764706,0.732026134 13.2287582,0.62745098 C13.2810458,0.261437898 13.6470588,-3.55271368e-15 14.0130719,-3.55271368e-15 L26.4575164,-3.55271368e-15 C28.0261438,-3.55271368e-15 29.3333333,1.30718955 29.3333333,2.87581697 L29.3333333,20.8627451 C29.2810457,22.4313725 27.9738562,23.7385621 26.4052288,23.7385621 L13.9607843,23.7385621 C13.5947712,23.7385621 13.2810457,23.4771242 13.1764706,23.1111111 C13.1764706,23.0065359 12.5490196,20.2875817 9.77777779,20.2875817 C7.00653597,20.2875817 6.43137255,23.0065359 6.37908499,23.1111111 C6.3267974,23.4771242 5.96078434,23.7385621 5.59477126,23.7385621 L2.875817,23.7385621 C1.30718955,23.7385621 -1.77635684e-15,22.4313725 -1.77635684e-15,20.8627451 L-1.77635684e-15,2.87581697 C-1.77635684e-15,1.30718952 1.30718955,-3.55271368e-15 2.875817,-3.55271368e-15 L5.64705882,-3.55271368e-15 Z M5.01960784,1.56862745 L2.875817,1.56862745 C2.14379087,1.56862745 1.56862745,2.14379084 1.56862745,2.87581697 L1.56862745,20.8627451 C1.56862745,21.5947712 2.14379084,22.1699346 2.875817,22.1699346 L5.01960784,22.1699346 C5.54248367,20.7058823 6.95424838,18.7189542 9.77777779,18.7189542 C12.6013072,18.7189542 14.0130719,20.7058823 14.5359477,22.1699346 L26.4052288,22.1699346 C27.1372549,22.1699346 27.7124183,21.5947712 27.7124183,20.8627451 L27.7124183,2.87581697 C27.7124183,2.14379084 27.1372549,1.56862745 26.4052288,1.56862745 L14.5359477,1.56862745 C14.0130719,3.03267975 12.6013072,5.01960784 9.77777779,5.01960784 C6.95424838,5.01960784 5.54248367,3.03267975 5.01960784,1.56862745 Z M9.77777779,13.1764706 C10.1960784,13.1764706 10.5620915,13.5424837 10.5620915,13.9607843 L10.5620915,15.3202614 C10.5620915,15.7908497 10.248366,16.1045752 9.77777779,16.1045752 C9.35947714,16.1045752 8.99346406,15.7385621 8.99346406,15.3202614 L8.99346406,13.9607843 C8.99346406,13.5424837 9.35947714,13.1764706 9.77777779,13.1764706 Z M22.9542484,13.1764706 C23.372549,13.1764706 23.7385621,13.5424837 23.7385621,13.9607843 C23.7385621,14.379085 23.372549,14.745098 22.9542484,14.745098 L15.3202615,14.745098 C14.9019608,14.745098 14.5359477,14.379085 14.5359477,13.9607843 C14.5359477,13.5424837 14.9019608,13.1764706 15.3202615,13.1764706 L22.9542484,13.1764706 Z M9.77777779,7.58169933 C10.1960784,7.58169933 10.5620915,7.94771241 10.5620915,8.36601305 L10.5620915,9.77777776 C10.5620915,10.248366 10.248366,10.5620915 9.77777779,10.5620915 C9.35947714,10.5620915 8.99346406,10.1960784 8.99346406,9.77777776 L8.99346406,8.36601305 C8.99346406,7.94771241 9.35947714,7.58169933 9.77777779,7.58169933 Z M22.9542484,8.99346403 C23.372549,8.99346403 23.7385621,9.35947711 23.7385621,9.77777776 C23.7385621,10.1960784 23.372549,10.5620915 22.9542484,10.5620915 L15.3202615,10.5620915 C14.9019608,10.5620915 14.5359477,10.1960784 14.5359477,9.77777776 C14.5359477,9.35947711 14.9019608,8.99346403 15.3202615,8.99346403 L22.9542484,8.99346403 Z" id="Icons/首页-售票"></path>
                </g>
            </g>
        </g>
    </g>
</svg>