<?xml version="1.0" encoding="UTF-8"?>
<svg width="60px" height="60px" viewBox="0 0 60 60" version="1.1" xmlns="http://www.w3.org/2000/svg" xmlns:xlink="http://www.w3.org/1999/xlink">
    <title>Icons/今日支付订单数</title>
    <g id="票务平台-管理端" stroke="none" stroke-width="1" fill="none" fill-rule="evenodd">
        <g id="视觉规范" transform="translate(-290.000000, -537.000000)">
            <g id="Icons/今日支付订单数" transform="translate(290.000000, 537.000000)">
                <rect id="矩形" fill="#FF8D41" x="0" y="0" width="60" height="60" rx="20"></rect>
                <g id="Icons/未就业" transform="translate(18.500000, 16.666667)" fill="#FFFFFF">
                    <path d="M2.72133899,1.31868133 C3.16640362,1.31868133 3.5271998,1.6794775 3.5271998,2.12454214 C3.5271998,2.56969174 3.1667411,2.9307714 2.72159216,2.9315376 L1.61172496,2.93333333 L1.61172496,25.0534799 L22.4175858,25.0505495 L22.4131902,2.93040293 L21.263389,2.93040295 C20.8628308,2.93040295 20.5305301,2.63815805 20.4680755,2.25525695 L20.4575281,2.12454214 C20.4575281,1.6794775 20.8183243,1.31868133 21.263389,1.31868133 L22.560312,1.31868133 C23.3725362,1.31868133 24.0294695,1.97448356 24.0294695,2.78717949 L24.0294695,25.1981685 C24.0294695,26.0101501 23.375893,26.6666667 22.5642681,26.6666667 L1.46536701,26.6666667 C1.07613524,26.6666667 0.702899753,26.5117954 0.428016346,26.2362248 C0.15318001,25.9607014 -0.000789567162,25.5871202 3.04508325e-06,25.1981685 L3.04508325e-06,2.78717949 C3.04508325e-06,1.97607368 0.656828628,1.31868133 1.46800436,1.31868133 L2.72133899,1.31868133 Z M17.985771,9.22678902 L18.1276746,9.24527274 C18.4105359,9.30802198 18.6379387,9.51778945 18.7232681,9.79467732 C18.8085974,10.0715652 18.7387171,10.3729473 18.5411624,10.5830447 L10.6291017,19.1544437 C10.4731011,19.3235375 10.2522664,19.4178932 10.0222411,19.4137361 C9.79221581,19.4095791 9.57493463,19.3073056 9.42510962,19.1326434 L5.47013933,14.5184973 C5.27896371,14.3004439 5.21968902,13.9964884 5.31492686,13.7225812 C5.41016471,13.448674 5.64522659,13.2470596 5.93044311,13.1946483 C6.21565962,13.1422369 6.50704195,13.247112 6.69243628,13.4680877 L10.0586114,17.396337 L17.3556282,9.49128359 C17.4852356,9.34806293 17.6594487,9.25857645 17.8450008,9.23342457 L17.985771,9.22678902 Z M17.2961362,0 C18.1006256,0 18.7547443,0.657296225 18.7547443,1.46388278 L18.7547443,2.78527328 C18.7543492,3.59126367 18.1027782,4.24545409 17.2961362,4.24908425 L6.73349887,4.24908425 C5.92900948,4.24908425 5.27489082,3.59178805 5.27489082,2.78520146 L5.27489082,1.46388278 C5.27489082,0.656823929 5.93080627,0 6.73349887,0 L17.2961362,0 Z M17.2895428,1.31868133 L6.74009226,1.31868133 L6.59357212,1.46520147 L6.59357212,2.7838828 L6.74009226,2.93040295 L17.2895428,2.93040295 L17.436063,2.7838828 L17.436063,1.46520147 L17.2895428,1.31868133 Z" id="Icons/首页--已付订单"></path>
                </g>
                <text id="实训答辩" font-family="SourceHanSansCN-Bold, Source Han Sans CN" font-size="8" font-weight="bold" line-spacing="12"></text>
            </g>
        </g>
    </g>
</svg>