<?xml version="1.0" encoding="UTF-8"?>
<svg width="60px" height="60px" viewBox="0 0 60 60" version="1.1" xmlns="http://www.w3.org/2000/svg" xmlns:xlink="http://www.w3.org/1999/xlink">
    <title>Icons/今日退票数</title>
    <g id="票务平台-管理端" stroke="none" stroke-width="1" fill="none" fill-rule="evenodd">
        <g id="视觉规范" transform="translate(-399.000000, -537.000000)">
            <g id="Icons/今日退票数" transform="translate(399.000000, 537.000000)">
                <rect id="矩形" fill="#DE799B" x="0" y="0" width="60" height="60" rx="20"></rect>
                <g id="Icons/未就业" transform="translate(15.833333, 16.666667)" fill="#FFFFFF">
                    <path d="M5.64705882,7.74415447 C6.01307191,7.74415447 6.3267974,8.00559237 6.43137255,8.37160545 C6.43137255,8.4761806 7.05882353,11.1951349 9.83006538,11.1951349 C12.6013072,11.1951349 13.1764706,8.4761806 13.2287582,8.37160545 C13.2810458,8.00559237 13.6470588,7.74415447 14.0130719,7.74415447 L26.4575164,7.74415447 C28.0261438,7.74415447 29.3333333,9.05134402 29.3333333,10.6199714 L29.3333333,23.2735662 C29.2810457,24.8421937 27.9738562,26.1493832 26.4052288,26.1493832 L13.9607843,26.1493832 C13.5947712,26.1493832 13.2810457,25.8879453 13.1764706,25.5219322 C13.1764706,25.4173571 12.5490196,22.6984028 9.77777779,22.6984028 C7.00653597,22.6984028 6.43137255,25.4173571 6.37908499,25.5219322 C6.3267974,25.8879453 5.96078434,26.1493832 5.59477126,26.1493832 L2.875817,26.1493832 C1.30718955,26.1493832 -1.77635684e-15,24.8421937 -1.77635684e-15,23.2735662 L-1.77635684e-15,10.6199714 C-1.77635684e-15,9.05134399 1.30718955,7.74415447 2.875817,7.74415447 L5.64705882,7.74415447 Z M5.01960784,9.31278192 L2.875817,9.31278192 C2.14379087,9.31278192 1.56862745,9.88794531 1.56862745,10.6199714 L1.56862745,23.2735662 C1.56862745,24.0055924 2.14379084,24.5807558 2.875817,24.5807558 L5.01960784,24.5807558 C5.54248367,23.1167035 6.95424838,21.1297754 9.77777779,21.1297754 C12.6013072,21.1297754 14.0130719,23.1167035 14.5359477,24.5807558 L26.4052288,24.5807558 C27.1372549,24.5807558 27.7124183,24.0055924 27.7124183,23.2735662 L27.7124183,10.6199714 C27.7124183,9.88794531 27.1372549,9.31278192 26.4052288,9.31278192 L14.5359477,9.31278192 C14.0130719,10.7768342 12.6013072,12.7637623 9.77777779,12.7637623 C6.95424838,12.7637623 5.54248367,10.7768342 5.01960784,9.31278192 Z M9.77777779,15.430429 C10.1960784,15.430429 10.5620915,15.7964421 10.5620915,16.2147427 L10.5620915,17.5742198 C10.5620915,18.0448081 10.248366,18.3585335 9.77777779,18.3585335 C9.35947714,18.3585335 8.99346406,17.9925205 8.99346406,17.5742198 L8.99346406,16.2147427 C8.99346406,15.7964421 9.35947714,15.430429 9.77777779,15.430429 Z M22.9542484,16.05788 C23.372549,16.05788 23.7385621,16.423893 23.7385621,16.8421937 C23.7385621,17.2604943 23.372549,17.6265074 22.9542484,17.6265074 L15.3202615,17.6265074 C14.9019608,17.6265074 14.5359477,17.2604943 14.5359477,16.8421937 C14.5359477,16.423893 14.9019608,16.05788 15.3202615,16.05788 L22.9542484,16.05788 Z M27.4191153,4.4838789 C27.2769689,4.62602533 27.084177,4.70588235 26.8831516,4.70588235 L2.48345743,4.70588235 C2.06484369,4.70588235 1.7254902,4.36652886 1.7254902,3.94791512 C1.72767954,3.73171623 1.82264537,3.52687711 1.98623091,3.3855034 C1.99684246,3.37489184 1.99987432,3.35973252 2.01048587,3.34912097 L5.13785872,0.221748119 C5.43423726,-0.0742117926 5.91442245,-0.0738724365 6.21038237,0.222506093 C6.50634229,0.518884622 6.50600295,0.999069809 6.20962443,1.29502974 L4.31470629,3.18994785 C6.09765158,3.18994785 7.43486055,3.18994785 8.32633319,3.18994785 C10.9750729,3.18994785 17.160679,3.18994785 26.8831516,3.18994785 C27.084177,3.18994784 27.2769689,3.26980487 27.4191154,3.41195131 C27.5612618,3.55409775 27.6411188,3.7468897 27.6411188,3.94791512 C27.6411188,4.14894053 27.5612618,4.34173247 27.4191153,4.4838789 Z" id="Icons/首页-退票"></path>
                </g>
                <text id="实训答辩" font-family="SourceHanSansCN-Bold, Source Han Sans CN" font-size="8" font-weight="bold" line-spacing="12"></text>
            </g>
        </g>
    </g>
</svg>