<?xml version="1.0" encoding="UTF-8"?>
<svg width="60px" height="60px" viewBox="0 0 60 60" version="1.1" xmlns="http://www.w3.org/2000/svg" xmlns:xlink="http://www.w3.org/1999/xlink">
    <title>Icons/今日已售(元)</title>
    <g id="票务平台-管理端" stroke="none" stroke-width="1" fill="none" fill-rule="evenodd">
        <g id="视觉规范" transform="translate(-82.000000, -537.000000)">
            <g id="Icons/今日已售(元)" transform="translate(82.000000, 537.000000)">
                <rect id="矩形" fill="#3BC9A9" x="0" y="0" width="60" height="60" rx="20"></rect>
                <g id="Icons/未就业" transform="translate(15.833333, 15.333333)" fill="#FFFFFF">
                    <path d="M14.6848249,-1.77635684e-15 C22.7542443,-1.77635684e-15 29.3333333,6.57908901 29.3333333,14.6485084 C29.3333333,22.7542443 22.7542443,29.3333333 14.6848249,29.3333333 C6.57908901,29.3333333 1.77635684e-15,22.7542443 1.77635684e-15,14.6848571 C1.77635684e-15,6.57908901 6.57908901,-1.77635684e-15 14.6848249,-1.77635684e-15 Z M14.6848249,1.8174368 C7.59685362,1.8174368 1.8174368,7.59685362 1.8174368,14.6848571 C1.8174368,21.7728606 7.59685362,27.5158965 14.6485084,27.5158965 C21.7001632,27.5158965 27.4796867,21.7364797 27.4796867,14.6848571 C27.5159287,7.59685362 21.7364797,1.8174368 14.6848249,1.8174368 Z M19.5064177,6.75795017 C19.9437735,6.97337688 20.1260051,7.51197544 19.9073595,7.9787015 L18.515,10.666 L20.40997,10.6666667 C20.9270535,10.6666667 21.3333333,11.0446753 21.3333333,11.5257771 C21.3333333,12.006879 20.9270208,12.3848876 20.40997,12.3848876 L15.999,12.384 L15.999,15.615 L20.40997,15.6151124 C20.9270535,15.6151124 21.3333333,15.9931515 21.3333333,16.4742229 C21.3333333,16.9552943 20.9270208,17.3333333 20.40997,17.3333333 L15.999,17.333 L16,23.0766367 C16,23.5937201 15.6799943,24 15.3333215,24 C14.9600052,24 14.6666667,23.5937201 14.6666667,23.0766367 L14.666,17.333 L8.9233633,17.3333333 C8.40627985,17.3333333 8,16.9553247 8,16.4742229 C8,15.993121 8.40631257,15.6151124 8.9233633,15.6151124 L14.666,15.615 L14.666,12.384 L8.9233633,12.3848876 C8.40627985,12.3848876 8,12.0068485 8,11.5257771 C8,11.0447057 8.40631257,10.6666667 8.9233633,10.6666667 L12.151,10.666 L10.7593335,7.9787015 C10.5406556,7.54784809 10.7228549,7.00928133 11.160243,6.75795017 C11.5975989,6.54252347 12.1442936,6.72204572 12.3994179,7.15293093 L14.218,10.666 L16.447,10.666 L18.2672429,7.15289913 C18.4859208,6.72204572 19.0326478,6.54252347 19.5064177,6.75795017 Z" id="形状结合"></path>
                </g>
                <text id="实训答辩" font-family="SourceHanSansCN-Bold, Source Han Sans CN" font-size="8" font-weight="bold" line-spacing="12"></text>
            </g>
        </g>
    </g>
</svg>