<?xml version="1.0" encoding="UTF-8"?>
<svg width="28px" height="28px" viewBox="0 0 28 28" version="1.1" xmlns="http://www.w3.org/2000/svg" xmlns:xlink="http://www.w3.org/1999/xlink">
    <title>Icons/订单管理 2</title>
    <g id="票务平台-管理端" stroke="none" stroke-width="1" fill="none" fill-rule="evenodd">
        <g id="视觉规范" transform="translate(-561.000000, -824.000000)" fill="#1BA9BA">
            <g id="Icons/订单管理-2" transform="translate(561.000000, 824.000000)">
                <g id="Icons/订单管理" transform="translate(4.666667, 2.829045)">
                    <path d="M12.9852049,-8.8817842e-16 C13.7270874,-8.8817842e-16 14.328502,0.60141458 14.328502,1.34329706 L14.328502,1.79106274 L16.5673304,1.79106274 C17.2592376,1.79109596 17.8379357,2.31669181 17.9043588,3.00540329 L17.9106275,3.1343598 L17.9106275,9.85084511 C17.9101019,10.3246648 17.5405845,10.7160759 17.0675789,10.743844 C16.5945732,10.771612 16.181796,10.4261258 16.1258334,9.95562228 L16.1195647,9.85084511 L16.1195647,3.5821255 L14.328502,3.5821255 L14.328502,4.02989118 C14.328502,4.77177367 13.7270874,5.37318825 12.9852049,5.37318825 L4.92542254,5.37318825 C4.18354006,5.37318825 3.58212548,4.77177367 3.58212548,4.02989118 L3.58212548,3.5821255 L1.79106274,3.5821255 L1.79106274,19.7016902 L8.05978237,19.7016902 C8.51379423,19.7017501 8.89592563,20.0415508 8.94904502,20.4924444 L8.95531373,20.5972216 C8.95525384,21.0512335 8.61545321,21.4333649 8.16455954,21.4864843 L8.05978237,21.492753 L1.34329706,21.492753 C0.651389894,21.492753 0.072691793,20.9671239 0.00626870563,20.2784124 L0,20.1494559 L0,3.1343598 C0,2.44245264 0.525629071,1.86375455 1.21434054,1.79733147 L1.34329706,1.79106274 L3.58212548,1.79106274 L3.58212548,1.34329706 C3.58212548,0.60141458 4.18354006,-8.8817842e-16 4.92542254,-8.8817842e-16 L12.9852049,-8.8817842e-16 Z M17.3150991,12.5374392 L19.8333333,17.0150961 L17.3150991,21.492753 L12.2374362,21.492753 L9.719202,17.0150961 L12.2374362,12.5374392 L17.3150991,12.5374392 Z M16.2673274,14.328502 L13.2843124,14.328502 L11.773551,17.0150961 L13.2852079,19.7016902 L16.2664319,19.7016902 L17.7780888,17.0150961 L16.2673274,14.328502 Z M14.7762677,15.6717991 C15.5181502,15.6717991 16.1195647,16.2732136 16.1195647,17.0150961 C16.1195647,17.7569786 15.5181502,18.3583932 14.7762677,18.3583932 C14.0343852,18.3583932 13.4329706,17.7569786 13.4329706,17.0150961 C13.4329706,16.2732136 14.0343852,15.6717991 14.7762677,15.6717991 Z M7.16425099,14.328502 C7.71534722,14.328502 8.01209135,14.5828541 8.05448337,15.0915583 L8.05978237,15.2240334 C8.05978237,15.8210543 7.76127191,16.1195647 7.16425099,16.1195647 L5.37318825,16.1195647 C4.82209201,16.1195647 4.52534788,15.8652126 4.48295587,15.3565084 L4.47765686,15.2240334 C4.47765686,14.6270124 4.77616733,14.328502 5.37318825,14.328502 L7.16425099,14.328502 Z M12.5374392,8.95531375 C13.0885355,8.95531375 13.3852796,9.20966585 13.4276716,9.71837006 L13.4329706,9.85084511 C13.4329706,10.447866 13.1344602,10.7463765 12.5374392,10.7463765 L5.37318825,10.7463765 C4.82209201,10.7463765 4.52534788,10.4920244 4.48295587,9.98332017 L4.47765686,9.85084511 C4.47765686,9.25382419 4.77616733,8.95531375 5.37318825,8.95531375 L12.5374392,8.95531375 Z M12.5374392,1.79106274 L5.37318825,1.79106274 L5.37318825,3.5821255 L12.5374392,3.5821255 L12.5374392,1.79106274 Z" id="Icons/Menu/订单管理"></path>
                </g>
            </g>
        </g>
    </g>
</svg>