<?xml version="1.0" standalone="no"?><!DOCTYPE svg PUBLIC "-//W3C//DTD SVG 1.1//EN" "http://www.w3.org/Graphics/SVG/1.1/DTD/svg11.dtd"><svg t="1698886346932" class="icon" viewBox="0 0 1024 1024" version="1.1" xmlns="http://www.w3.org/2000/svg" p-id="1031" xmlns:xlink="http://www.w3.org/1999/xlink" width="32" height="32"><path d="M878.933 460.8H183.467c-12.8 0-21.334-8.533-21.334-21.333s8.534-21.334 21.334-21.334h695.466c12.8 0 21.334 8.534 21.334 21.334s-12.8 21.333-21.334 21.333z" fill="#515151" p-id="1032"></path><path d="M878.933 456.533c-4.266 0-12.8 0-17.066-4.266l-256-256c-8.534-8.534-8.534-21.334 0-29.867 8.533-8.533 21.333-8.533 29.866 0l256 256c8.534 8.533 8.534 21.333 0 29.867-4.266 0-8.533 4.266-12.8 4.266z m0 149.334H183.467c-12.8 0-21.334-8.534-21.334-21.334s8.534-21.333 21.334-21.333h695.466c12.8 0 21.334 8.533 21.334 21.333s-12.8 21.334-21.334 21.334z" fill="#515151" p-id="1033"></path><path d="M439.467 861.867c-4.267 0-12.8 0-17.067-4.267l-256-256c-8.533-8.533-8.533-21.333 0-29.867 8.533-8.533 21.333-8.533 29.867 0l256 256c8.533 8.534 8.533 21.334 0 29.867-4.267 4.267-8.534 4.267-12.8 4.267z" fill="#515151" p-id="1034"></path></svg>