<?xml version="1.0" encoding="UTF-8"?>
<svg width="16px" height="16px" viewBox="0 0 16 16" version="1.1" xmlns="http://www.w3.org/2000/svg" xmlns:xlink="http://www.w3.org/1999/xlink">
    <title>Icons/上升</title>
    <g id="票务平台-管理端" stroke="none" stroke-width="1" fill="none" fill-rule="evenodd">
        <g id="视觉规范" transform="translate(-87.000000, -658.000000)">
            <g id="Icons/上升" transform="translate(87.000000, 658.000000)">
                <g transform="translate(2.000000, 2.000000)">
                    <rect id="矩形" fill="#3BC9A9" transform="translate(6.000000, 6.000000) scale(1, -1) translate(-6.000000, -6.000000) " x="0" y="0" width="12" height="12" rx="6"></rect>
                    <path d="M5.37867028,2.70413997 L2.96894605,4.91655987 C2.68882924,5.19308964 2.67820466,5.63126681 2.93827097,5.91441593 L3.02120076,5.99157057 C3.28401805,6.19989294 3.66439757,6.19941632 3.92773497,5.97596348 L5.524,4.50891505 L5.52434642,8.38852415 C5.52434642,8.78309479 5.8442249,9.10297327 6.238815,9.10297327 L6.33576416,9.09645101 C6.68449681,9.04914136 6.95328358,8.75021228 6.95328358,8.38850469 L6.952,4.53691505 L8.51291334,5.96863216 C8.8030889,6.23554666 9.25507522,6.21667392 9.52221155,5.92625687 C9.78934788,5.63583983 9.77047513,5.18385351 9.48005809,4.91671718 L7.06929921,2.70401322 C6.59117265,2.265167 5.85673103,2.26522206 5.37867028,2.70413997 Z" id="形状结合" fill="#FFFFFF"></path>
                </g>
            </g>
        </g>
    </g>
</svg>